Coordinates
version=1
nRows=4
nColumns=63
inDegrees=yes

Units are S.I. units (second, meters, Newtons, ...)
If the header above contains a line with 'inDegrees', this indicates whether rotational values are in degrees (yes) or radians (no).

endheader
time	pelvis_tilt	pelvis_list	pelvis_rotation	pelvis_tx	pelvis_ty	pelvis_tz	hip_flexion_r	hip_adduction_r	hip_rotation_r	knee_angle_r	knee_angle_r_beta	ankle_angle_r	subtalar_angle_r	mtp_angle_r	hip_flexion_l	hip_adduction_l	hip_rotation_l	knee_angle_l	knee_angle_l_beta	ankle_angle_l	subtalar_angle_l	mtp_angle_l	L5_S1_Flex_Ext	L5_S1_Lat_Bending	L5_S1_axial_rotation	L4_L5_Flex_Ext	L4_L5_Lat_Bending	L4_L5_axial_rotation	L3_L4_Flex_Ext	L3_L4_Lat_Bending	L3_L4_axial_rotation	L2_L3_Flex_Ext	L2_L3_Lat_Bending	L2_L3_axial_rotation	L1_L2_Flex_Ext	L1_L2_Lat_Bending	L1_L2_axial_rotation	L1_T12_Flex_Ext	L1_T12_Lat_Bending	L1_T12_axial_rotation	Abs_r3	Abs_r2	Abs_r1	Abs_t1	Abs_t2	neck_flexion	neck_bending	neck_rotation	arm_flex_r	arm_add_r	arm_rot_r	elbow_flex_r	pro_sup_r	wrist_flex_r	wrist_dev_r	arm_flex_l	arm_add_l	arm_rot_l	elbow_flex_l	pro_sup_l	wrist_flex_l	wrist_dev_l
      3.88300000	    -64.35760704	    -11.47575105	     -0.72930835	     -0.30881585	      1.14739343	      0.03513027	    109.92327465	     -9.16089444	    -13.15306176	     64.57387273	      1.12702669	     20.21519623	     -2.22921422	      0.00000000	    101.35688709	     -3.55054257	     13.16181452	     76.84611278	      1.34121769	     11.65146937	     -4.87603055	      0.00000000	     -0.08992088	      1.93476997	     -0.00427885	     -0.16699206	      2.57324406	     -0.00454627	     -0.14773101	      4.70419970	     -0.00454627	     -0.10277057	      4.70419970	     -0.00374399	     -0.08350053	      3.94538292	     -0.00347656	     -0.05138079	      2.99695868	     -0.00320913	     -0.64229584	     21.88650482	     -0.02379766	      0.00000000	      0.00000000	      0.00000000	      0.00000000	      0.00000000	     70.40677546	     -7.46738223	      0.75558638	     43.59627762	     68.51032564	      0.00000000	      4.99998705	     63.55787048	     -2.42247912	     -8.66692031	     42.88224901	     67.10424854	      0.00000000	      4.99998705
      3.89200000	    -64.21325527	    -11.55199876	     -0.21945791	     -0.30887711	      1.14713296	      0.03512157	    108.21972719	     -9.29490228	    -13.61959417	     61.36614651	      1.07104131	     18.70083561	     -2.11025532	      0.00000000	    102.72204628	     -3.02009347	     13.23047165	     80.13527153	      1.39862434	     12.41511299	     -4.63185290	      0.00000000	     -0.09303997	      1.91436375	     -0.06638692	     -0.17278452	      2.54610379	     -0.07053610	     -0.15285536	      4.65458402	     -0.07053610	     -0.10633538	      4.65458402	     -0.05808855	     -0.08639691	      3.90377056	     -0.05393937	     -0.05316304	      2.96534945	     -0.04979019	     -0.66457518	     21.65566562	     -0.36922413	      0.00000000	      0.00000000	      0.00000000	      0.00000000	      0.00000000	     70.09854618	     -7.56419218	     -0.05467408	     43.88505198	     68.43189686	      0.00000000	      4.99998732	     63.67907806	     -2.31817095	     -8.35165120	     42.77685462	     67.16487168	      0.00000000	      4.99998732
      3.90000000	    -64.09511186	    -11.43403298	      0.60657270	     -0.30913255	      1.14680239	      0.03487182	    106.60722329	     -9.67053332	    -13.77554035	     58.28727383	      1.01730484	     17.14914151	     -1.77972637	      0.00000000	    104.09274562	     -2.26407145	     12.91547177	     83.15117634	      1.45126180	     13.14595686	     -4.52095402	      0.00000000	     -0.08978322	      1.86611814	     -0.19894679	     -0.16673641	      2.48193712	     -0.21138097	     -0.14750485	      4.53727964	     -0.21138097	     -0.10261324	      4.53727964	     -0.17407844	     -0.08337269	      3.80538810	     -0.16164427	     -0.05130213	      2.89061699	     -0.14921009	     -0.64131254	     21.10990158	     -1.10648237	      0.00000000	      0.00000000	      0.00000000	      0.00000000	      0.00000000	     69.80360456	     -7.60496965	     -0.57914588	     44.11829126	     68.37924502	      0.00000000	      4.99998748	     63.87286857	     -2.24119937	     -8.16654924	     42.70977562	     67.19949721	      0.00000000	      4.99998748
      3.90800000	    -63.95860037	    -11.38693617	      1.00087677	     -0.30907303	      1.14619148	      0.03498034	    104.88572604	     -9.70806757	    -14.31338666	     55.28477277	      0.96490131	     15.37507979	     -1.48015107	      0.00000000	    105.56784830	     -1.90099529	     12.81908892	     86.28092338	      1.50588619	     13.93892356	     -4.17575826	      0.00000000	     -0.09136237	      1.83177357	     -0.24822548	     -0.16966905	      2.43625884	     -0.26373957	     -0.15009923	      4.45377425	     -0.26373957	     -0.10441805	      4.45377425	     -0.21719730	     -0.08483909	      3.73535266	     -0.20168320	     -0.05220446	      2.83741725	     -0.18616911	     -0.65259225	     20.72138894	     -1.38055566	      0.00000000	      0.00000000	      0.00000000	      0.00000000	      0.00000000	     69.46789133	     -7.57441884	     -1.61308257	     44.40016921	     68.27832414	      0.00000000	      4.99998777	     64.00165789	     -2.20658454	     -7.82421615	     42.53779740	     67.26615085	      0.00000000	      4.99998777
